<mxfile host="app.diagrams.net" modified="2023-03-16T02:51:00.473Z" agent="5.0 (Macintosh; Intel Mac OS X 10_15_7) AppleWebKit/537.36 (KHTML, like Gecko) Chrome/111.0.0.0 Safari/537.36" etag="0oZ1pGoUW3hhuP8JCrSX" version="21.0.6" type="github">
  <diagram name="Page-1" id="-VrFYs0Vl5SFLQsJXujO">
    <mxGraphModel dx="957" dy="664" grid="1" gridSize="10" guides="1" tooltips="1" connect="1" arrows="1" fold="1" page="1" pageScale="1" pageWidth="827" pageHeight="1169" math="0" shadow="0">
      <root>
        <mxCell id="0" />
        <mxCell id="1" parent="0" />
        <mxCell id="LKev1vuDSWPG3BVOv9Xq-1" value="job type for proj 1" style="html=1;shadow=0;dashed=0;shape=mxgraph.bootstrap.rrect;rSize=5;strokeColor=#505050;strokeWidth=1;fillColor=#ffffff;fontColor=#777777;whiteSpace=wrap;align=center;verticalAlign=middle;fontStyle=0;fontSize=18;spacing=20;" parent="1" vertex="1">
          <mxGeometry x="40" y="150" width="160" height="50" as="geometry" />
        </mxCell>
        <mxCell id="LKev1vuDSWPG3BVOv9Xq-2" value="" style="shape=triangle;direction=south;fillColor=#495057;strokeColor=none;perimeter=none;" parent="LKev1vuDSWPG3BVOv9Xq-1" vertex="1">
          <mxGeometry x="1" y="0.5" width="10" height="5" relative="1" as="geometry">
            <mxPoint x="-17" y="-2.5" as="offset" />
          </mxGeometry>
        </mxCell>
        <mxCell id="LKev1vuDSWPG3BVOv9Xq-3" value="Task for proj 1" style="html=1;shadow=0;dashed=0;shape=mxgraph.bootstrap.rrect;rSize=5;strokeColor=#505050;strokeWidth=1;fillColor=#ffffff;fontColor=#777777;whiteSpace=wrap;align=center;verticalAlign=middle;fontStyle=0;fontSize=18;spacing=20;" parent="1" vertex="1">
          <mxGeometry x="230" y="150" width="140" height="50" as="geometry" />
        </mxCell>
        <mxCell id="LKev1vuDSWPG3BVOv9Xq-4" value="" style="shape=triangle;direction=south;fillColor=#495057;strokeColor=none;perimeter=none;" parent="LKev1vuDSWPG3BVOv9Xq-3" vertex="1">
          <mxGeometry x="1" y="0.5" width="10" height="5" relative="1" as="geometry">
            <mxPoint x="-17" y="-2.5" as="offset" />
          </mxGeometry>
        </mxCell>
        <mxCell id="LKev1vuDSWPG3BVOv9Xq-5" value="PH for proj 1" style="html=1;shadow=0;dashed=0;shape=mxgraph.bootstrap.rrect;rSize=5;strokeColor=#505050;strokeWidth=1;fillColor=#ffffff;fontColor=#777777;whiteSpace=wrap;align=center;verticalAlign=middle;fontStyle=0;fontSize=18;spacing=20;" parent="1" vertex="1">
          <mxGeometry x="400" y="150" width="176" height="50" as="geometry" />
        </mxCell>
        <mxCell id="LKev1vuDSWPG3BVOv9Xq-6" value="" style="shape=triangle;direction=south;fillColor=#495057;strokeColor=none;perimeter=none;" parent="LKev1vuDSWPG3BVOv9Xq-5" vertex="1">
          <mxGeometry x="1" y="0.5" width="10" height="5" relative="1" as="geometry">
            <mxPoint x="-17" y="-2.5" as="offset" />
          </mxGeometry>
        </mxCell>
        <mxCell id="LKev1vuDSWPG3BVOv9Xq-10" value="&lt;p style=&quot;margin: 0px; font-variant-numeric: normal; font-variant-east-asian: normal; font-stretch: normal; line-height: normal; font-family: &amp;quot;Helvetica Neue&amp;quot;;&quot; class=&quot;p1&quot;&gt;&lt;b&gt;Request Time-in/out in Timelog&lt;/b&gt;&lt;/p&gt;" style="html=1;shadow=0;dashed=0;shape=mxgraph.bootstrap.checkbox2;labelPosition=right;verticalLabelPosition=middle;align=left;verticalAlign=middle;gradientColor=#DEDEDE;fillColor=#EDEDED;checked=1;spacing=5;checkedFill=#0085FC;checkedStroke=#ffffff;sketch=0;" parent="1" vertex="1">
          <mxGeometry x="40" y="240" width="20" height="20" as="geometry" />
        </mxCell>
        <mxCell id="LKev1vuDSWPG3BVOv9Xq-12" value="&lt;font style=&quot;font-size: 18px;&quot;&gt;timelog template design&lt;/font&gt;" style="text;html=1;strokeColor=none;fillColor=none;align=center;verticalAlign=middle;whiteSpace=wrap;rounded=0;" parent="1" vertex="1">
          <mxGeometry x="320" y="30" width="210" height="30" as="geometry" />
        </mxCell>
        <mxCell id="LKev1vuDSWPG3BVOv9Xq-14" value="Enable/ Disable" style="html=1;shadow=0;dashed=0;shape=mxgraph.bootstrap.rrect;rSize=5;strokeColor=#505050;strokeWidth=1;fillColor=#ffffff;fontColor=#777777;whiteSpace=wrap;align=center;verticalAlign=middle;fontStyle=0;fontSize=18;spacing=20;" parent="1" vertex="1">
          <mxGeometry x="620" y="150" width="150" height="50" as="geometry" />
        </mxCell>
        <mxCell id="LKev1vuDSWPG3BVOv9Xq-15" value="" style="shape=triangle;direction=south;fillColor=#495057;strokeColor=none;perimeter=none;" parent="LKev1vuDSWPG3BVOv9Xq-14" vertex="1">
          <mxGeometry x="1" y="0.5" width="10" height="5" relative="1" as="geometry">
            <mxPoint x="-17" y="-2.5" as="offset" />
          </mxGeometry>
        </mxCell>
        <mxCell id="LKev1vuDSWPG3BVOv9Xq-16" value="Status" style="text;html=1;strokeColor=none;fillColor=none;align=center;verticalAlign=middle;whiteSpace=wrap;rounded=0;fontSize=18;" parent="1" vertex="1">
          <mxGeometry x="665" y="120" width="60" height="30" as="geometry" />
        </mxCell>
        <mxCell id="LKev1vuDSWPG3BVOv9Xq-17" value="Public Holiday" style="text;html=1;strokeColor=none;fillColor=none;align=center;verticalAlign=middle;whiteSpace=wrap;rounded=0;fontSize=18;" parent="1" vertex="1">
          <mxGeometry x="400" y="120" width="170" height="30" as="geometry" />
        </mxCell>
        <mxCell id="LKev1vuDSWPG3BVOv9Xq-18" value="Task" style="text;html=1;strokeColor=none;fillColor=none;align=center;verticalAlign=middle;whiteSpace=wrap;rounded=0;fontSize=18;" parent="1" vertex="1">
          <mxGeometry x="210" y="120" width="170" height="30" as="geometry" />
        </mxCell>
        <mxCell id="LKev1vuDSWPG3BVOv9Xq-19" value="Job Type" style="text;html=1;strokeColor=none;fillColor=none;align=center;verticalAlign=middle;whiteSpace=wrap;rounded=0;fontSize=18;" parent="1" vertex="1">
          <mxGeometry x="30" y="120" width="170" height="30" as="geometry" />
        </mxCell>
        <mxCell id="YHBMjUVnW-5pPuf0W77k-1" value="Assets" style="childLayout=tableLayout;recursiveResize=0;strokeColor=#98bf21;fillColor=#A7C942;shadow=1;movable=1;resizable=1;rotatable=1;deletable=1;editable=1;locked=0;connectable=1;" vertex="1" parent="1">
          <mxGeometry x="90" y="720" width="620" height="144" as="geometry" />
        </mxCell>
        <mxCell id="YHBMjUVnW-5pPuf0W77k-2" style="shape=tableRow;horizontal=0;startSize=0;swimlaneHead=0;swimlaneBody=0;top=0;left=0;bottom=0;right=0;dropTarget=0;collapsible=0;recursiveResize=0;expand=0;fontStyle=0;strokeColor=inherit;fillColor=#ffffff;movable=1;resizable=1;rotatable=1;deletable=1;editable=1;locked=0;connectable=1;" vertex="1" parent="YHBMjUVnW-5pPuf0W77k-1">
          <mxGeometry width="620" height="50" as="geometry" />
        </mxCell>
        <mxCell id="YHBMjUVnW-5pPuf0W77k-3" value="&lt;font style=&quot;font-size: 14px;&quot;&gt;Project/ Dự Án&lt;/font&gt;" style="connectable=0;recursiveResize=0;strokeColor=inherit;fillColor=#A7C942;align=center;fontStyle=1;fontColor=#FFFFFF;html=1;" vertex="1" parent="YHBMjUVnW-5pPuf0W77k-2">
          <mxGeometry width="206" height="50" as="geometry">
            <mxRectangle width="206" height="50" as="alternateBounds" />
          </mxGeometry>
        </mxCell>
        <mxCell id="YHBMjUVnW-5pPuf0W77k-4" value="&lt;font style=&quot;font-size: 14px;&quot;&gt;Report Month (Tháng Báo Cáo)&lt;/font&gt;" style="connectable=1;recursiveResize=0;strokeColor=inherit;fillColor=#A7C942;align=center;fontStyle=1;fontColor=#FFFFFF;html=1;movable=1;resizable=1;rotatable=1;deletable=1;editable=1;locked=0;" vertex="1" parent="YHBMjUVnW-5pPuf0W77k-2">
          <mxGeometry x="206" width="208" height="50" as="geometry">
            <mxRectangle width="208" height="50" as="alternateBounds" />
          </mxGeometry>
        </mxCell>
        <mxCell id="YHBMjUVnW-5pPuf0W77k-5" value="&lt;font style=&quot;font-size: 14px;&quot;&gt;Submission Date/ Ngày Gửi&lt;/font&gt;" style="connectable=1;recursiveResize=0;strokeColor=inherit;fillColor=#A7C942;align=center;fontStyle=1;fontColor=#FFFFFF;html=1;movable=1;resizable=1;rotatable=1;deletable=1;editable=1;locked=0;" vertex="1" parent="YHBMjUVnW-5pPuf0W77k-2">
          <mxGeometry x="414" width="206" height="50" as="geometry">
            <mxRectangle width="206" height="50" as="alternateBounds" />
          </mxGeometry>
        </mxCell>
        <mxCell id="YHBMjUVnW-5pPuf0W77k-6" value="" style="shape=tableRow;horizontal=0;startSize=0;swimlaneHead=0;swimlaneBody=0;top=0;left=0;bottom=0;right=0;dropTarget=0;collapsible=0;recursiveResize=0;expand=0;fontStyle=0;strokeColor=inherit;fillColor=#ffffff;" vertex="1" parent="YHBMjUVnW-5pPuf0W77k-1">
          <mxGeometry y="50" width="620" height="48" as="geometry" />
        </mxCell>
        <mxCell id="YHBMjUVnW-5pPuf0W77k-7" value="project 1" style="connectable=0;recursiveResize=0;strokeColor=inherit;fillColor=inherit;align=center;whiteSpace=wrap;html=1;" vertex="1" parent="YHBMjUVnW-5pPuf0W77k-6">
          <mxGeometry width="206" height="48" as="geometry">
            <mxRectangle width="206" height="48" as="alternateBounds" />
          </mxGeometry>
        </mxCell>
        <mxCell id="YHBMjUVnW-5pPuf0W77k-8" value="03-2023" style="connectable=0;recursiveResize=0;strokeColor=inherit;fillColor=inherit;align=center;whiteSpace=wrap;html=1;movable=0;resizable=0;rotatable=0;deletable=0;editable=0;locked=1;" vertex="1" parent="YHBMjUVnW-5pPuf0W77k-6">
          <mxGeometry x="206" width="208" height="48" as="geometry">
            <mxRectangle width="208" height="48" as="alternateBounds" />
          </mxGeometry>
        </mxCell>
        <mxCell id="YHBMjUVnW-5pPuf0W77k-9" value="2023-03-30" style="connectable=0;recursiveResize=0;strokeColor=inherit;fillColor=inherit;align=center;whiteSpace=wrap;html=1;movable=0;resizable=0;rotatable=0;deletable=0;editable=0;locked=1;" vertex="1" parent="YHBMjUVnW-5pPuf0W77k-6">
          <mxGeometry x="414" width="206" height="48" as="geometry">
            <mxRectangle width="206" height="48" as="alternateBounds" />
          </mxGeometry>
        </mxCell>
        <mxCell id="YHBMjUVnW-5pPuf0W77k-10" value="" style="shape=tableRow;horizontal=0;startSize=0;swimlaneHead=0;swimlaneBody=0;top=0;left=0;bottom=0;right=0;dropTarget=0;collapsible=0;recursiveResize=0;expand=0;fontStyle=1;strokeColor=inherit;fillColor=#EAF2D3;" vertex="1" parent="YHBMjUVnW-5pPuf0W77k-1">
          <mxGeometry y="98" width="620" height="46" as="geometry" />
        </mxCell>
        <mxCell id="YHBMjUVnW-5pPuf0W77k-11" value="project 2" style="connectable=0;recursiveResize=0;strokeColor=inherit;fillColor=inherit;whiteSpace=wrap;html=1;" vertex="1" parent="YHBMjUVnW-5pPuf0W77k-10">
          <mxGeometry width="206" height="46" as="geometry">
            <mxRectangle width="206" height="46" as="alternateBounds" />
          </mxGeometry>
        </mxCell>
        <mxCell id="YHBMjUVnW-5pPuf0W77k-12" value="02-2023" style="connectable=0;recursiveResize=0;strokeColor=inherit;fillColor=inherit;whiteSpace=wrap;html=1;movable=0;resizable=0;rotatable=0;deletable=0;editable=0;locked=1;" vertex="1" parent="YHBMjUVnW-5pPuf0W77k-10">
          <mxGeometry x="206" width="208" height="46" as="geometry">
            <mxRectangle width="208" height="46" as="alternateBounds" />
          </mxGeometry>
        </mxCell>
        <mxCell id="YHBMjUVnW-5pPuf0W77k-13" value="2023-02-28" style="connectable=0;recursiveResize=0;strokeColor=inherit;fillColor=inherit;whiteSpace=wrap;html=1;movable=0;resizable=0;rotatable=0;deletable=0;editable=0;locked=1;" vertex="1" parent="YHBMjUVnW-5pPuf0W77k-10">
          <mxGeometry x="414" width="206" height="46" as="geometry">
            <mxRectangle width="206" height="46" as="alternateBounds" />
          </mxGeometry>
        </mxCell>
        <mxCell id="YHBMjUVnW-5pPuf0W77k-47" value="&lt;font style=&quot;font-size: 14px;&quot;&gt;Status/ Trạng Thái&lt;/font&gt;" style="connectable=1;recursiveResize=0;strokeColor=inherit;fillColor=#A7C942;align=center;fontStyle=1;fontColor=#FFFFFF;html=1;movable=1;resizable=1;rotatable=1;deletable=1;editable=1;locked=0;" vertex="1" parent="1">
          <mxGeometry x="710" y="720" width="206" height="50" as="geometry">
            <mxRectangle width="206" height="50" as="alternateBounds" />
          </mxGeometry>
        </mxCell>
        <mxCell id="YHBMjUVnW-5pPuf0W77k-48" value="NEW" style="connectable=0;recursiveResize=0;strokeColor=inherit;fillColor=inherit;align=center;whiteSpace=wrap;html=1;movable=0;resizable=0;rotatable=0;deletable=0;editable=0;locked=1;" vertex="1" parent="1">
          <mxGeometry x="710" y="770" width="206" height="48" as="geometry">
            <mxRectangle width="206" height="48" as="alternateBounds" />
          </mxGeometry>
        </mxCell>
        <mxCell id="YHBMjUVnW-5pPuf0W77k-49" value="Value 6" style="connectable=0;recursiveResize=0;strokeColor=inherit;fillColor=inherit;whiteSpace=wrap;html=1;movable=0;resizable=0;rotatable=0;deletable=0;editable=0;locked=1;" vertex="1" parent="1">
          <mxGeometry x="710" y="818" width="206" height="46" as="geometry">
            <mxRectangle width="206" height="46" as="alternateBounds" />
          </mxGeometry>
        </mxCell>
        <mxCell id="YHBMjUVnW-5pPuf0W77k-53" value="PENDING APPROVAL" style="connectable=0;recursiveResize=0;strokeColor=#82b366;fillColor=#d5e8d4;whiteSpace=wrap;html=1;movable=0;resizable=0;rotatable=0;deletable=0;editable=0;locked=1;" vertex="1" parent="1">
          <mxGeometry x="710" y="818" width="206" height="46" as="geometry">
            <mxRectangle width="206" height="46" as="alternateBounds" />
          </mxGeometry>
        </mxCell>
        <mxCell id="YHBMjUVnW-5pPuf0W77k-55" value="&lt;font style=&quot;font-size: 15px;&quot;&gt;Show all timelogs that status is NEW or PENDING APPROVAL&lt;/font&gt;" style="text;html=1;strokeColor=none;fillColor=none;align=center;verticalAlign=middle;whiteSpace=wrap;rounded=0;" vertex="1" parent="1">
          <mxGeometry x="200" y="680" width="560" height="30" as="geometry" />
        </mxCell>
      </root>
    </mxGraphModel>
  </diagram>
</mxfile>
